<svg width="413" height="431" viewBox="0 0 413 431" fill="none" xmlns="http://www.w3.org/2000/svg">
<path d="M221.71 128.52V0L382.36 332H39.6499L200.29 0V128.52L125.32 278.45H296.68L221.71 128.52Z" fill="black"/>
<path d="M0 368.15H53.5L43.63 377.96H32.23V428.56H20.72V377.96H9.87L0 368.15Z" fill="black"/>
<path d="M54.7202 428.56L90.0902 367.5L117.6 414.27H105.81L90.0902 387.85L72.4002 420.3H119.89L123.82 428.56H54.7202Z" fill="black"/>
<path d="M228.35 429.21H218V367.5H237.67C255.76 367.5 270.44 381.31 270.44 398.36C270.44 415.36 255.76 429.21 237.67 429.21H236.67V419.47H237.36C249.94 419.47 260.13 409.87 260.13 398.03C260.13 386.19 249.94 376.59 237.36 376.59H228.36L228.35 429.21Z" fill="black"/>
<path d="M286.99 429.21V368.15H331.33L321.09 376.59H297.2V393.86H327.92L319.38 401.93H297.2V420.77H321.09L331.33 429.21H286.99Z" fill="black"/>
<path d="M351.15 421.01V368.2L382.28 396.7L412.55 368.2V382.35L382.28 410.86L362.1 391.85V430.51H351.15V421.01Z" fill="black"/>
<path d="M139.17 428.56V367.63L196.49 428.56H183.55L148.42 392V428.56H139.17Z" fill="black"/>
<path d="M187.24 402.45V379.82L196.49 367.63V393.74L187.24 402.45Z" fill="black"/>
</svg>
