<svg width="246" height="65" viewBox="0 0 246 65" fill="none" xmlns="http://www.w3.org/2000/svg">
<g clip-path="url(#clip0)">
<path d="M70.7358 22.1249H93.4645L89.2705 26.5534H84.4316V49.3846H79.5372V26.5534H74.9299L70.7358 22.1249Z" fill="white"/>
<path d="M93.9833 49.3847L109.01 21.8348L120.698 42.9368H115.689L109.01 31.0171L101.495 45.6566H121.668L123.339 49.3847H93.9833Z" fill="white"/>
<path d="M167.747 49.6778H163.35V21.8348H171.703C175.395 21.8348 178.936 23.3015 181.547 25.9123C184.158 28.5231 185.625 32.0641 185.625 35.7563C185.625 39.4485 184.158 42.9895 181.547 45.6002C178.936 48.211 175.395 49.6778 171.703 49.6778H171.264V45.2815H171.557C174.122 45.2815 176.582 44.2625 178.396 42.4487C180.209 40.6349 181.228 38.1748 181.228 35.6097C181.228 33.0446 180.209 30.5846 178.396 28.7707C176.582 26.9569 174.122 25.938 171.557 25.938H167.747V49.6778Z" fill="white"/>
<path d="M192.662 49.6778V22.1279H211.495L207.146 25.938H196.993V33.7281H210.044L206.419 37.3682H196.993V45.8677H207.146L211.495 49.6778H192.662Z" fill="white"/>
<path d="M219.918 45.9761V22.1484L233.139 35.0118L246.003 22.1484V28.5347L233.139 41.3981L224.567 32.8225V50.2639H219.918V45.9761Z" fill="white"/>
<path d="M129.863 49.3846V21.8934L154.212 49.3846H148.714L133.79 32.8899V49.3846H129.863Z" fill="white"/>
<path d="M150.285 37.6027V27.3916L154.212 21.8934V33.6753L150.285 37.6027Z" fill="white"/>
<path d="M35.3313 25.0176V0L66.5037 64.6279H0L31.1724 0V25.0176L16.6267 54.2029H49.877L35.3313 25.0176Z" fill="white"/>
</g>
<defs>
<clipPath id="clip0">
<rect width="246" height="64.6279" fill="white"/>
</clipPath>
</defs>
</svg>
